<!--?xml version="1.0" standalone="no"?-->
              <svg id="sw-js-blob-svg" viewBox="0 0 100 100" xmlns="http://www.w3.org/2000/svg" version="1.1">
                    <defs> 
                        <linearGradient id="sw-gradient" x1="0" x2="1" y1="1" y2="0">
                            <stop id="stop1" stop-color="rgba(0, 123.253, 255, 1)" offset="0%"></stop>
                            <stop id="stop2" stop-color="rgba(255, 0, 0, 1)" offset="100%"></stop>
                        </linearGradient>
                    </defs>
                <path fill="url(#sw-gradient)" d="M20.1,-23.8C27,-18.2,34.3,-12.8,35.4,-6.2C36.6,0.3,31.7,7.9,26.3,13.3C20.9,18.7,15,22,8.1,26.1C1.2,30.3,-6.8,35.5,-13.1,34C-19.5,32.6,-24.2,24.6,-27,16.9C-29.8,9.2,-30.7,1.8,-29.6,-5.3C-28.4,-12.5,-25.2,-19.4,-20,-25.2C-14.7,-31.1,-7.3,-35.9,-0.4,-35.4C6.6,-35,13.2,-29.3,20.1,-23.8Z" width="100%" height="100%" transform="translate(50 50)" style="transition: all 0.3s ease 0s;" stroke-width="0" stroke="url(#sw-gradient)"></path>
              </svg>