<svg viewBox="0 0 800 600" height="600" width="800" xmlns="http://www.w3.org/2000/svg" version="1.1"><g transform-origin="center" transform="scale(1, 1) rotate(0)"><rect x="0" y="0" width="800" height="600" fill="#0a1a3200"></rect><linearGradient id="linear-gradient-r2"><stop offset="0%" stop-color="#ff0003ff" stop-opacity="100%"></stop><stop offset="100%" stop-color="#4794fcff" stop-opacity="100%"></stop></linearGradient><g><path d="M 910.1043762010056 255.10437620100566 C902.3706363029846 490.10437620100566 675.1043762010056 782.1087636899852 440.10437620100566 725.1043762010056  C205.10437620100566 668.0999887120261 -225.46043845543647 490.10437620100566 -29.895623798994347 255.10437620100566  C165.6691908574478 20.104376201005653 205.10437620100566 -352.551216066457 440.10437620100566 -214.89562379899434  C675.1043762010056 -77.2400315315317 917.8381160990266 20.104376201005653 910.1043762010056 255.10437620100566" fill="none" stroke-linecap="round" stroke="url(#linear-gradient-r2)" stroke-width="20" style="transform-origin: center center 0px; transform: scale(1.2) translate(0px, 2px); transition: all 0.4s cubic-bezier(0.16, 1, 0.3, 1) 0s;"></path><path d="M 878.437709534339 240.1043762010057 C872.3088656699919 452.60437620100566 665.937709534339 710.279284474311 453.43770953433904 665.1043762010056  C240.93770953433904 619.9294679277002 -126.54373931113291 452.60437620100566 28.437709534339024 240.1043762010057  C183.41915837981097 27.60437620100568 240.93770953433904 -293.985099678239 453.43770953433904 -184.8956237989943  C665.937709534339 -75.8061479197496 884.5665533986861 27.60437620100568 878.437709534339 240.1043762010057" fill="none" stroke-linecap="round" stroke="url(#linear-gradient-r2)" stroke-width="10" style="transform-origin: center center 0px; transform: scale(1.2) translate(0px, 2px); transition: all 0.4s cubic-bezier(0.16, 1, 0.3, 1) 0s;"></path><path d="M 840.1043762010056 232.60437620100566 C834.825277440073 422.60437620100566 650.1043762010056 651.5159242138624 460.10437620100566 612.6043762010056  C270.10437620100566 573.6928281881488 -53.38937770698534 422.60437620100566 80.10437620100565 232.60437620100566  C213.59813010899666 42.60437620100565 270.10437620100566 -241.36018378640145 460.10437620100566 -147.39562379899434  C650.1043762010056 -53.43106381158724 845.3834749619382 42.60437620100565 840.1043762010056 232.60437620100566" fill="none" stroke-linecap="round" stroke="url(#linear-gradient-r2)" stroke-width="6.666666666666667" style="transform-origin: center center 0px; transform: scale(1.2) translate(0px, 2px); transition: all 0.4s cubic-bezier(0.16, 1, 0.3, 1) 0s;"></path><path d="M 799.1043762010056 228.10437620100566 C794.3624552929558 395.60437620100566 631.6043762010056 598.0564563651878 464.10437620100566 563.1043762010056  C296.60437620100566 528.1522960368234 9.194359090710993 395.60437620100566 129.10437620100566 228.10437620100566  C249.01439331130032 60.60437620100565 296.60437620100566 -191.2987637662556 464.10437620100566 -106.89562379899435  C631.6043762010056 -22.49248383173308 803.8462971090554 60.60437620100565 799.1043762010056 228.10437620100566" fill="none" stroke-linecap="round" stroke="url(#linear-gradient-r2)" stroke-width="5" style="transform-origin: center center 0px; transform: scale(1.2) translate(0px, 2px); transition: all 0.4s cubic-bezier(0.16, 1, 0.3, 1) 0s;"></path><path d="M 756.7710428676722 225.10437620100566 C752.4047664013855 370.10437620100566 611.7710428676722 547.2876302087997 466.7710428676723 515.1043762010056  C321.7710428676723 482.9211221932116 66.36003097332949 370.10437620100566 176.7710428676723 225.10437620100566  C287.18205476201507 80.10437620100565 321.7710428676723 -142.61253449106272 466.7710428676723 -64.89562379899435  C611.7710428676722 12.82128689307405 761.137319333959 80.10437620100565 756.7710428676722 225.10437620100566" fill="none" stroke-linecap="round" stroke="url(#linear-gradient-r2)" stroke-width="4" style="transform-origin: center center 0px; transform: scale(1.2) translate(0px, 2px); transition: all 0.4s cubic-bezier(0.16, 1, 0.3, 1) 0s;"></path><path d="M 713.6758047724342 222.96151905814853 C709.5899088628694 345.46151905814855 591.1758047724342 498.07812457368544 468.6758047724342 467.96151905814855  C346.1758047724342 437.84491354261166 120.3548388754529 345.46151905814855 223.67580477243422 222.96151905814853  C326.9967706694155 100.46151905814851 346.1758047724342 -94.7647981946813 468.6758047724342 -22.038480941851486  C591.1758047724342 50.68783631097833 717.761700681999 100.46151905814851 713.6758047724342 222.96151905814853" fill="none" stroke-linecap="round" stroke="url(#linear-gradient-r2)" stroke-width="3.3333333333333335" style="transform-origin: center center 0px; transform: scale(1.2) translate(0px, 2px); transition: all 0.4s cubic-bezier(0.16, 1, 0.3, 1) 0s;"></path><path d="M 670.1043762010056 221.35437620100566 C666.2375062519951 321.35437620100566 570.1043762010056 449.85656994549544 470.10437620100566 421.35437620100566  C370.10437620100566 392.8521824565159 172.32196887278462 321.35437620100566 270.10437620100566 221.35437620100566  C367.8867835292267 121.35437620100565 370.10437620100566 -47.47341993272566 470.10437620100566 21.354376201005653  C570.1043762010056 90.18217233473696 673.9712461500161 121.35437620100565 670.1043762010056 221.35437620100566" fill="none" stroke-linecap="round" stroke="url(#linear-gradient-r2)" stroke-width="2.857142857142857" style="transform-origin: center center 0px; transform: scale(1.2) translate(0px, 2px); transition: all 0.4s cubic-bezier(0.16, 1, 0.3, 1) 0s;"></path><path d="M 626.2154873121167 220.10437620100566 C622.5255556282974 297.60437620100566 548.7154873121167 402.3023810842734 471.21548731211675 375.10437620100566  C393.71548731211675 347.9063713177379 222.90735756421688 297.60437620100566 316.21548731211675 220.10437620100566  C409.52361706001665 142.60437620100566 393.71548731211675 -0.5740327008243724 471.21548731211675 65.10437620100565  C548.7154873121167 130.7827851028357 629.905418995936 142.60437620100566 626.2154873121167 220.10437620100566" fill="none" stroke-linecap="round" stroke="url(#linear-gradient-r2)" stroke-width="2.5" style="transform-origin: center center 0px; transform: scale(1.2) translate(0px, 2px); transition: all 0.4s cubic-bezier(0.16, 1, 0.3, 1) 0s;"></path><path d="M 582.1043762010056 219.10437620100566 C578.5611098266517 274.10437620100566 527.1043762010056 355.2213302289047 472.10437620100566 329.10437620100566  C417.10437620100566 302.9874221731066 272.50500501498374 274.10437620100566 362.10437620100566 219.10437620100566  C451.7037473870276 164.10437620100566 417.10437620100566 46.03651540471907 472.10437620100566 109.10437620100565  C527.1043762010056 172.17223699729226 585.6476425753596 164.10437620100566 582.1043762010056 219.10437620100566" fill="none" stroke-linecap="round" stroke="url(#linear-gradient-r2)" stroke-width="2.2222222222222223" style="transform-origin: center center 0px; transform: scale(1.2) translate(0px, 2px); transition: all 0.4s cubic-bezier(0.16, 1, 0.3, 1) 0s;"></path><path d="M 537.8316489282784 218.28619438282385 C534.4124534063646 250.78619438282385 505.3316489282784 308.48863834937464 472.8316489282784 283.28619438282385  C440.3316489282784 258.08375041627306 321.36968520380674 250.78619438282385 407.8316489282784 218.28619438282385  C494.2936126527501 185.78619438282385 440.3316489282784 92.42671490023504 472.8316489282784 153.28619438282385  C505.3316489282784 214.14567386541265 541.2508444501921 185.78619438282385 537.8316489282784 218.28619438282385" fill="none" stroke-linecap="round" stroke="url(#linear-gradient-r2)" stroke-width="2" style="transform-origin: center center 0px; transform: scale(1.2) translate(0px, 2px); transition: all 0.4s cubic-bezier(0.16, 1, 0.3, 1) 0s;"></path></g></g></svg>