<?xml version="1.0" standalone="no"?><svg xmlns:xlink="http://www.w3.org/1999/xlink" xmlns="http://www.w3.org/2000/svg" viewBox="0 0 1000 499.9992544735316" preserveAspectRatio="xMaxYMax slice"><g transform="scale(1.491052936852417)"><rect x="0" y="0" width="737.7325999999999" height="402.39959999999996" fill="#000000"/><rect x="67.0666" y="67.0666" width="67.0666" height="67.0666" fill="#000000"/><g transform="translate(67.07,67.07) scale(1.6765) rotate(0)"><path d="M10 5L5 0L0 5L5 10L0 15L5 20L10 15L15 20L20 15L15 10L20 5L15 0L10 5Z" fill="#e5e6ec"/></g><rect x="469.46619999999996" y="67.0666" width="67.0666" height="67.0666" fill="#000000"/><rect x="134.1332" y="134.1332" width="67.0666" height="67.0666" fill="#000000"/><g transform="translate(167.67,134.13) scale(1.6765) rotate(0)"><path d="M10 5L5 0L0 5L5 10L0 15L5 20L10 15L15 20L20 15L15 10L20 5L15 0L10 5Z" fill="#0b0b0c"/></g><g transform="translate(134.13,167.67) scale(1.6765) rotate(0)"><rect width="20" height="2" fill="#141415"/><rect y="4" width="20" height="2" fill="#141415"/><rect y="8" width="20" height="2" fill="#141415"/><rect y="12" width="20" height="2" fill="#141415"/><rect y="16" width="20" height="2" fill="#141415"/></g><rect x="268.2664" y="134.1332" width="67.0666" height="67.0666" fill="#000000"/><rect x="268.27" y="134.13" width="33.53" height="33.53" fill="#6f6f72"/><rect x="536.5328" y="134.1332" width="67.0666" height="67.0666" fill="#000000"/><rect x="536.53" y="167.67" width="33.53" height="33.53" fill="#dedfe5"/><rect x="67.0666" y="201.19979999999998" width="67.0666" height="67.0666" fill="#000000"/><g transform="translate(100.6,234.73) scale(1.6765) rotate(0)"><rect width="20" height="2" fill="#0b0b0b"/><rect y="4" width="20" height="2" fill="#0b0b0b"/><rect y="8" width="20" height="2" fill="#0b0b0b"/><rect y="12" width="20" height="2" fill="#0b0b0b"/><rect y="16" width="20" height="2" fill="#0b0b0b"/></g><rect x="134.1332" y="201.19979999999998" width="67.0666" height="67.0666" fill="#000000"/><g transform="translate(134.13,201.2) scale(1.6765) rotate(0)"><rect width="20" height="2" fill="#9a9a9f"/><rect y="4" width="20" height="2" fill="#9a9a9f"/><rect y="8" width="20" height="2" fill="#9a9a9f"/><rect y="12" width="20" height="2" fill="#9a9a9f"/><rect y="16" width="20" height="2" fill="#9a9a9f"/></g><g transform="translate(167.67,201.2) scale(1.6765) rotate(0)"><rect width="20" height="2" fill="#7b7c7f"/><rect y="4" width="20" height="2" fill="#7b7c7f"/><rect y="8" width="20" height="2" fill="#7b7c7f"/><rect y="12" width="20" height="2" fill="#7b7c7f"/><rect y="16" width="20" height="2" fill="#7b7c7f"/></g><g transform="translate(134.13,234.73) scale(1.6765) rotate(0)"><rect width="20" height="2" fill="#2a2a2c"/><rect y="4" width="20" height="2" fill="#2a2a2c"/><rect y="8" width="20" height="2" fill="#2a2a2c"/><rect y="12" width="20" height="2" fill="#2a2a2c"/><rect y="16" width="20" height="2" fill="#2a2a2c"/></g><rect x="201.19979999999998" y="201.19979999999998" width="67.0666" height="67.0666" fill="#000000"/><g transform="translate(201.2,201.2) scale(1.6765) rotate(0)"><path d="M10 5L5 0L0 5L5 10L0 15L5 20L10 15L15 20L20 15L15 10L20 5L15 0L10 5Z" fill="#e6e6ed"/></g><rect x="201.2" y="234.73" width="33.53" height="33.53" fill="#a0a1a5"/><rect x="268.2664" y="201.19979999999998" width="67.0666" height="67.0666" fill="#000000"/><g transform="translate(268.27,201.2) scale(1.6765) rotate(0)"><rect width="20" height="2" fill="#111111"/><rect y="4" width="20" height="2" fill="#111111"/><rect y="8" width="20" height="2" fill="#111111"/><rect y="12" width="20" height="2" fill="#111111"/><rect y="16" width="20" height="2" fill="#111111"/></g><g transform="translate(301.8,201.2) scale(1.6765) rotate(0)"><rect width="20" height="2" fill="#4c4c4e"/><rect y="4" width="20" height="2" fill="#4c4c4e"/><rect y="8" width="20" height="2" fill="#4c4c4e"/><rect y="12" width="20" height="2" fill="#4c4c4e"/><rect y="16" width="20" height="2" fill="#4c4c4e"/></g><g transform="translate(268.27,234.73) scale(1.6765) rotate(0)"><path fill-rule="evenodd" clip-rule="evenodd" d="M10 20C15.5228 20 20 15.5228 20 10C20 4.47715 15.5228 0 10 0C4.47715 0 0 4.47715 0 10C0 15.5228 4.47715 20 10 20ZM10 17C13.866 17 17 13.866 17 10C17 6.13401 13.866 3 10 3C6.13401 3 3 6.13401 3 10C3 13.866 6.13401 17 10 17Z" fill="#1d1d1e"/></g><rect x="335.33299999999997" y="201.19979999999998" width="67.0666" height="67.0666" fill="#000000"/><rect x="335.33" y="201.2" width="33.53" height="33.53" fill="#5e5f61"/><g transform="translate(335.33,234.73) scale(1.6765) rotate(0)"><path d="M10 5L5 0L0 5L5 10L0 15L5 20L10 15L15 20L20 15L15 10L20 5L15 0L10 5Z" fill="#aaabb0"/></g><rect x="402.39959999999996" y="201.19979999999998" width="67.0666" height="67.0666" fill="#000000"/><rect x="402.4" y="201.2" width="33.53" height="33.53" fill="#171718"/><rect x="435.93" y="201.2" width="33.53" height="33.53" fill="#cfd0d6"/><rect x="402.4" y="234.73" width="33.53" height="33.53" fill="#acacb1"/><g transform="translate(435.93,234.73) scale(1.6765) rotate(0)"><path fill-rule="evenodd" clip-rule="evenodd" d="M10 20C15.5228 20 20 15.5228 20 10C20 4.47715 15.5228 0 10 0C4.47715 0 0 4.47715 0 10C0 15.5228 4.47715 20 10 20ZM10 17C13.866 17 17 13.866 17 10C17 6.13401 13.866 3 10 3C6.13401 3 3 6.13401 3 10C3 13.866 6.13401 17 10 17Z" fill="#78787c"/></g><rect x="603.5994" y="201.19979999999998" width="67.0666" height="67.0666" fill="#000000"/><g transform="translate(603.6,234.73) scale(1.6765) rotate(0)"><path d="M10 5L5 0L0 5L5 10L0 15L5 20L10 15L15 20L20 15L15 10L20 5L15 0L10 5Z" fill="#262627"/></g><rect x="670.6659999999999" y="201.19979999999998" width="67.0666" height="67.0666" fill="#000000"/><rect x="704.2" y="201.2" width="33.53" height="33.53" fill="#333335"/><g transform="translate(670.67,234.73) scale(1.6765) rotate(0)"><rect width="20" height="2" fill="#f3f4fa"/><rect y="4" width="20" height="2" fill="#f3f4fa"/><rect y="8" width="20" height="2" fill="#f3f4fa"/><rect y="12" width="20" height="2" fill="#f3f4fa"/><rect y="16" width="20" height="2" fill="#f3f4fa"/></g><rect x="0" y="268.2664" width="67.0666" height="67.0666" fill="#000000"/><rect x="0" y="268.27" width="33.53" height="33.53" fill="#626366"/><g transform="translate(33.53,268.27) scale(1.6765) rotate(0)"><path d="M10 5L5 0L0 5L5 10L0 15L5 20L10 15L15 20L20 15L15 10L20 5L15 0L10 5Z" fill="#1a1a1b"/></g><g transform="translate(0,301.8) scale(1.6765) rotate(0)"><rect width="20" height="2" fill="#76777a"/><rect y="4" width="20" height="2" fill="#76777a"/><rect y="8" width="20" height="2" fill="#76777a"/><rect y="12" width="20" height="2" fill="#76777a"/><rect y="16" width="20" height="2" fill="#76777a"/></g><g transform="translate(33.53,301.8) scale(1.6765) rotate(0)"><rect width="20" height="2" fill="#c2c2c8"/><rect y="4" width="20" height="2" fill="#c2c2c8"/><rect y="8" width="20" height="2" fill="#c2c2c8"/><rect y="12" width="20" height="2" fill="#c2c2c8"/><rect y="16" width="20" height="2" fill="#c2c2c8"/></g><rect x="67.0666" y="268.2664" width="67.0666" height="67.0666" fill="#000000"/><g transform="translate(67.07,268.27) scale(1.6765) rotate(0)"><path fill-rule="evenodd" clip-rule="evenodd" d="M10 20C15.5228 20 20 15.5228 20 10C20 4.47715 15.5228 0 10 0C4.47715 0 0 4.47715 0 10C0 15.5228 4.47715 20 10 20ZM10 17C13.866 17 17 13.866 17 10C17 6.13401 13.866 3 10 3C6.13401 3 3 6.13401 3 10C3 13.866 6.13401 17 10 17Z" fill="#020202"/></g><rect x="67.07" y="301.8" width="33.53" height="33.53" fill="#656568"/><rect x="134.1332" y="268.2664" width="67.0666" height="67.0666" fill="#000000"/><g transform="translate(134.13,268.27) scale(1.6765) rotate(0)"><path fill-rule="evenodd" clip-rule="evenodd" d="M10 20C15.5228 20 20 15.5228 20 10C20 4.47715 15.5228 0 10 0C4.47715 0 0 4.47715 0 10C0 15.5228 4.47715 20 10 20ZM10 17C13.866 17 17 13.866 17 10C17 6.13401 13.866 3 10 3C6.13401 3 3 6.13401 3 10C3 13.866 6.13401 17 10 17Z" fill="#e5e6ed"/></g><g transform="translate(167.67,268.27) scale(1.6765) rotate(0)"><path fill-rule="evenodd" clip-rule="evenodd" d="M10 20C15.5228 20 20 15.5228 20 10C20 4.47715 15.5228 0 10 0C4.47715 0 0 4.47715 0 10C0 15.5228 4.47715 20 10 20ZM10 17C13.866 17 17 13.866 17 10C17 6.13401 13.866 3 10 3C6.13401 3 3 6.13401 3 10C3 13.866 6.13401 17 10 17Z" fill="#78797c"/></g><rect x="134.13" y="301.8" width="33.53" height="33.53" fill="#aaabb0"/><g transform="translate(167.67,301.8) scale(1.6765) rotate(0)"><path fill-rule="evenodd" clip-rule="evenodd" d="M10 20C15.5228 20 20 15.5228 20 10C20 4.47715 15.5228 0 10 0C4.47715 0 0 4.47715 0 10C0 15.5228 4.47715 20 10 20ZM10 17C13.866 17 17 13.866 17 10C17 6.13401 13.866 3 10 3C6.13401 3 3 6.13401 3 10C3 13.866 6.13401 17 10 17Z" fill="#929397"/></g><rect x="268.2664" y="268.2664" width="67.0666" height="67.0666" fill="#000000"/><g transform="translate(268.27,268.27) scale(1.6765) rotate(0)"><rect width="20" height="2" fill="#747578"/><rect y="4" width="20" height="2" fill="#747578"/><rect y="8" width="20" height="2" fill="#747578"/><rect y="12" width="20" height="2" fill="#747578"/><rect y="16" width="20" height="2" fill="#747578"/></g><g transform="translate(301.8,268.27) scale(1.6765) rotate(0)"><rect width="20" height="2" fill="#626265"/><rect y="4" width="20" height="2" fill="#626265"/><rect y="8" width="20" height="2" fill="#626265"/><rect y="12" width="20" height="2" fill="#626265"/><rect y="16" width="20" height="2" fill="#626265"/></g><g transform="translate(301.8,301.8) scale(1.6765) rotate(0)"><path fill-rule="evenodd" clip-rule="evenodd" d="M10 20C15.5228 20 20 15.5228 20 10C20 4.47715 15.5228 0 10 0C4.47715 0 0 4.47715 0 10C0 15.5228 4.47715 20 10 20ZM10 17C13.866 17 17 13.866 17 10C17 6.13401 13.866 3 10 3C6.13401 3 3 6.13401 3 10C3 13.866 6.13401 17 10 17Z" fill="#cecfd5"/></g><rect x="335.33299999999997" y="268.2664" width="67.0666" height="67.0666" fill="#000000"/><g transform="translate(335.33,268.27) scale(1.6765) rotate(0)"><rect width="20" height="2" fill="#838387"/><rect y="4" width="20" height="2" fill="#838387"/><rect y="8" width="20" height="2" fill="#838387"/><rect y="12" width="20" height="2" fill="#838387"/><rect y="16" width="20" height="2" fill="#838387"/></g><g transform="translate(368.87,268.27) scale(1.6765) rotate(0)"><path d="M10 5L5 0L0 5L5 10L0 15L5 20L10 15L15 20L20 15L15 10L20 5L15 0L10 5Z" fill="#ecedf4"/></g><g transform="translate(335.33,301.8) scale(1.6765) rotate(0)"><path d="M10 5L5 0L0 5L5 10L0 15L5 20L10 15L15 20L20 15L15 10L20 5L15 0L10 5Z" fill="#3b3b3d"/></g><g transform="translate(368.87,301.8) scale(1.6765) rotate(0)"><path d="M10 5L5 0L0 5L5 10L0 15L5 20L10 15L15 20L20 15L15 10L20 5L15 0L10 5Z" fill="#505153"/></g><rect x="402.39959999999996" y="268.2664" width="67.0666" height="67.0666" fill="#000000"/><rect x="402.4" y="268.27" width="33.53" height="33.53" fill="#4d4e50"/><g transform="translate(435.93,268.27) scale(1.6765) rotate(0)"><path d="M10 5L5 0L0 5L5 10L0 15L5 20L10 15L15 20L20 15L15 10L20 5L15 0L10 5Z" fill="#9b9ba0"/></g><rect x="402.4" y="301.8" width="33.53" height="33.53" fill="#9e9fa3"/><g transform="translate(435.93,301.8) scale(1.6765) rotate(0)"><path fill-rule="evenodd" clip-rule="evenodd" d="M10 20C15.5228 20 20 15.5228 20 10C20 4.47715 15.5228 0 10 0C4.47715 0 0 4.47715 0 10C0 15.5228 4.47715 20 10 20ZM10 17C13.866 17 17 13.866 17 10C17 6.13401 13.866 3 10 3C6.13401 3 3 6.13401 3 10C3 13.866 6.13401 17 10 17Z" fill="#bbbcc1"/></g><rect x="469.46619999999996" y="268.2664" width="67.0666" height="67.0666" fill="#000000"/><g transform="translate(469.47,268.27) scale(1.6765) rotate(0)"><path d="M10 5L5 0L0 5L5 10L0 15L5 20L10 15L15 20L20 15L15 10L20 5L15 0L10 5Z" fill="#e2e3e9"/></g><g transform="translate(503,268.27) scale(1.6765) rotate(0)"><path d="M10 5L5 0L0 5L5 10L0 15L5 20L10 15L15 20L20 15L15 10L20 5L15 0L10 5Z" fill="#98999d"/></g><g transform="translate(503,301.8) scale(1.6765) rotate(0)"><rect width="20" height="2" fill="#48484a"/><rect y="4" width="20" height="2" fill="#48484a"/><rect y="8" width="20" height="2" fill="#48484a"/><rect y="12" width="20" height="2" fill="#48484a"/><rect y="16" width="20" height="2" fill="#48484a"/></g><rect x="536.5328" y="268.2664" width="67.0666" height="67.0666" fill="#000000"/><g transform="translate(536.53,268.27) scale(1.6765) rotate(0)"><path d="M10 5L5 0L0 5L5 10L0 15L5 20L10 15L15 20L20 15L15 10L20 5L15 0L10 5Z" fill="#242425"/></g><rect x="570.07" y="268.27" width="33.53" height="33.53" fill="#4d4d4f"/><g transform="translate(536.53,301.8) scale(1.6765) rotate(0)"><path fill-rule="evenodd" clip-rule="evenodd" d="M10 20C15.5228 20 20 15.5228 20 10C20 4.47715 15.5228 0 10 0C4.47715 0 0 4.47715 0 10C0 15.5228 4.47715 20 10 20ZM10 17C13.866 17 17 13.866 17 10C17 6.13401 13.866 3 10 3C6.13401 3 3 6.13401 3 10C3 13.866 6.13401 17 10 17Z" fill="#1d1d1e"/></g><g transform="translate(570.07,301.8) scale(1.6765) rotate(0)"><path d="M10 5L5 0L0 5L5 10L0 15L5 20L10 15L15 20L20 15L15 10L20 5L15 0L10 5Z" fill="#b5b6bb"/></g><rect x="603.5994" y="268.2664" width="67.0666" height="67.0666" fill="#000000"/><rect x="603.6" y="268.27" width="33.53" height="33.53" fill="#2e2e2f"/><g transform="translate(637.13,268.27) scale(1.6765) rotate(0)"><rect width="20" height="2" fill="#bbbcc1"/><rect y="4" width="20" height="2" fill="#bbbcc1"/><rect y="8" width="20" height="2" fill="#bbbcc1"/><rect y="12" width="20" height="2" fill="#bbbcc1"/><rect y="16" width="20" height="2" fill="#bbbcc1"/></g><g transform="translate(603.6,301.8) scale(1.6765) rotate(0)"><rect width="20" height="2" fill="#d2d2d8"/><rect y="4" width="20" height="2" fill="#d2d2d8"/><rect y="8" width="20" height="2" fill="#d2d2d8"/><rect y="12" width="20" height="2" fill="#d2d2d8"/><rect y="16" width="20" height="2" fill="#d2d2d8"/></g><g transform="translate(637.13,301.8) scale(1.6765) rotate(0)"><rect width="20" height="2" fill="#f5f6fd"/><rect y="4" width="20" height="2" fill="#f5f6fd"/><rect y="8" width="20" height="2" fill="#f5f6fd"/><rect y="12" width="20" height="2" fill="#f5f6fd"/><rect y="16" width="20" height="2" fill="#f5f6fd"/></g><rect x="670.6659999999999" y="268.2664" width="67.0666" height="67.0666" fill="#000000"/><g transform="translate(670.67,268.27) scale(1.6765) rotate(0)"><rect width="20" height="2" fill="#121213"/><rect y="4" width="20" height="2" fill="#121213"/><rect y="8" width="20" height="2" fill="#121213"/><rect y="12" width="20" height="2" fill="#121213"/><rect y="16" width="20" height="2" fill="#121213"/></g><g transform="translate(670.67,301.8) scale(1.6765) rotate(0)"><path fill-rule="evenodd" clip-rule="evenodd" d="M10 20C15.5228 20 20 15.5228 20 10C20 4.47715 15.5228 0 10 0C4.47715 0 0 4.47715 0 10C0 15.5228 4.47715 20 10 20ZM10 17C13.866 17 17 13.866 17 10C17 6.13401 13.866 3 10 3C6.13401 3 3 6.13401 3 10C3 13.866 6.13401 17 10 17Z" fill="#1c1c1d"/></g><g transform="translate(704.2,301.8) scale(1.6765) rotate(0)"><path fill-rule="evenodd" clip-rule="evenodd" d="M10 20C15.5228 20 20 15.5228 20 10C20 4.47715 15.5228 0 10 0C4.47715 0 0 4.47715 0 10C0 15.5228 4.47715 20 10 20ZM10 17C13.866 17 17 13.866 17 10C17 6.13401 13.866 3 10 3C6.13401 3 3 6.13401 3 10C3 13.866 6.13401 17 10 17Z" fill="#404042"/></g><rect x="0" y="335.33299999999997" width="67.0666" height="67.0666" fill="#000000"/><g transform="translate(0,335.33) scale(1.6765) rotate(0)"><path d="M10 5L5 0L0 5L5 10L0 15L5 20L10 15L15 20L20 15L15 10L20 5L15 0L10 5Z" fill="#6c6d70"/></g><g transform="translate(33.53,335.33) scale(1.6765) rotate(0)"><path fill-rule="evenodd" clip-rule="evenodd" d="M10 20C15.5228 20 20 15.5228 20 10C20 4.47715 15.5228 0 10 0C4.47715 0 0 4.47715 0 10C0 15.5228 4.47715 20 10 20ZM10 17C13.866 17 17 13.866 17 10C17 6.13401 13.866 3 10 3C6.13401 3 3 6.13401 3 10C3 13.866 6.13401 17 10 17Z" fill="#151516"/></g><g transform="translate(0,368.87) scale(1.6765) rotate(0)"><path fill-rule="evenodd" clip-rule="evenodd" d="M10 20C15.5228 20 20 15.5228 20 10C20 4.47715 15.5228 0 10 0C4.47715 0 0 4.47715 0 10C0 15.5228 4.47715 20 10 20ZM10 17C13.866 17 17 13.866 17 10C17 6.13401 13.866 3 10 3C6.13401 3 3 6.13401 3 10C3 13.866 6.13401 17 10 17Z" fill="#58595b"/></g><g transform="translate(33.53,368.87) scale(1.6765) rotate(0)"><rect width="20" height="2" fill="#67676a"/><rect y="4" width="20" height="2" fill="#67676a"/><rect y="8" width="20" height="2" fill="#67676a"/><rect y="12" width="20" height="2" fill="#67676a"/><rect y="16" width="20" height="2" fill="#67676a"/></g><rect x="67.0666" y="335.33299999999997" width="67.0666" height="67.0666" fill="#000000"/><rect x="67.07" y="335.33" width="33.53" height="33.53" fill="#eaebf2"/><g transform="translate(100.6,335.33) scale(1.6765) rotate(0)"><rect width="20" height="2" fill="#464648"/><rect y="4" width="20" height="2" fill="#464648"/><rect y="8" width="20" height="2" fill="#464648"/><rect y="12" width="20" height="2" fill="#464648"/><rect y="16" width="20" height="2" fill="#464648"/></g><g transform="translate(67.07,368.87) scale(1.6765) rotate(0)"><rect width="20" height="2" fill="#7a7a7e"/><rect y="4" width="20" height="2" fill="#7a7a7e"/><rect y="8" width="20" height="2" fill="#7a7a7e"/><rect y="12" width="20" height="2" fill="#7a7a7e"/><rect y="16" width="20" height="2" fill="#7a7a7e"/></g><rect x="100.6" y="368.87" width="33.53" height="33.53" fill="#242425"/><rect x="134.1332" y="335.33299999999997" width="67.0666" height="67.0666" fill="#000000"/><g transform="translate(134.13,335.33) scale(1.6765) rotate(0)"><path d="M10 5L5 0L0 5L5 10L0 15L5 20L10 15L15 20L20 15L15 10L20 5L15 0L10 5Z" fill="#5a5a5d"/></g><g transform="translate(167.67,335.33) scale(1.6765) rotate(0)"><path d="M10 5L5 0L0 5L5 10L0 15L5 20L10 15L15 20L20 15L15 10L20 5L15 0L10 5Z" fill="#7c7d80"/></g><rect x="134.13" y="368.87" width="33.53" height="33.53" fill="#101010"/><g transform="translate(167.67,368.87) scale(1.6765) rotate(0)"><path d="M10 5L5 0L0 5L5 10L0 15L5 20L10 15L15 20L20 15L15 10L20 5L15 0L10 5Z" fill="#353537"/></g><rect x="201.19979999999998" y="335.33299999999997" width="67.0666" height="67.0666" fill="#000000"/><g transform="translate(201.2,335.33) scale(1.6765) rotate(0)"><path fill-rule="evenodd" clip-rule="evenodd" d="M10 20C15.5228 20 20 15.5228 20 10C20 4.47715 15.5228 0 10 0C4.47715 0 0 4.47715 0 10C0 15.5228 4.47715 20 10 20ZM10 17C13.866 17 17 13.866 17 10C17 6.13401 13.866 3 10 3C6.13401 3 3 6.13401 3 10C3 13.866 6.13401 17 10 17Z" fill="#9b9ca0"/></g><rect x="234.73" y="335.33" width="33.53" height="33.53" fill="#f6f7fe"/><g transform="translate(201.2,368.87) scale(1.6765) rotate(0)"><path fill-rule="evenodd" clip-rule="evenodd" d="M10 20C15.5228 20 20 15.5228 20 10C20 4.47715 15.5228 0 10 0C4.47715 0 0 4.47715 0 10C0 15.5228 4.47715 20 10 20ZM10 17C13.866 17 17 13.866 17 10C17 6.13401 13.866 3 10 3C6.13401 3 3 6.13401 3 10C3 13.866 6.13401 17 10 17Z" fill="#8a8a8e"/></g><rect x="234.73" y="368.87" width="33.53" height="33.53" fill="#646467"/><rect x="268.2664" y="335.33299999999997" width="67.0666" height="67.0666" fill="#000000"/><g transform="translate(268.27,335.33) scale(1.6765) rotate(0)"><path fill-rule="evenodd" clip-rule="evenodd" d="M10 20C15.5228 20 20 15.5228 20 10C20 4.47715 15.5228 0 10 0C4.47715 0 0 4.47715 0 10C0 15.5228 4.47715 20 10 20ZM10 17C13.866 17 17 13.866 17 10C17 6.13401 13.866 3 10 3C6.13401 3 3 6.13401 3 10C3 13.866 6.13401 17 10 17Z" fill="#29292a"/></g><g transform="translate(301.8,335.33) scale(1.6765) rotate(0)"><path fill-rule="evenodd" clip-rule="evenodd" d="M10 20C15.5228 20 20 15.5228 20 10C20 4.47715 15.5228 0 10 0C4.47715 0 0 4.47715 0 10C0 15.5228 4.47715 20 10 20ZM10 17C13.866 17 17 13.866 17 10C17 6.13401 13.866 3 10 3C6.13401 3 3 6.13401 3 10C3 13.866 6.13401 17 10 17Z" fill="#808185"/></g><g transform="translate(268.27,368.87) scale(1.6765) rotate(0)"><path d="M10 5L5 0L0 5L5 10L0 15L5 20L10 15L15 20L20 15L15 10L20 5L15 0L10 5Z" fill="#c5c6cb"/></g><g transform="translate(301.8,368.87) scale(1.6765) rotate(0)"><path d="M10 5L5 0L0 5L5 10L0 15L5 20L10 15L15 20L20 15L15 10L20 5L15 0L10 5Z" fill="#535356"/></g><rect x="335.33299999999997" y="335.33299999999997" width="67.0666" height="67.0666" fill="#000000"/><g transform="translate(335.33,335.33) scale(1.6765) rotate(0)"><rect width="20" height="2" fill="#b6b7bc"/><rect y="4" width="20" height="2" fill="#b6b7bc"/><rect y="8" width="20" height="2" fill="#b6b7bc"/><rect y="12" width="20" height="2" fill="#b6b7bc"/><rect y="16" width="20" height="2" fill="#b6b7bc"/></g><rect x="368.87" y="335.33" width="33.53" height="33.53" fill="#939397"/><g transform="translate(335.33,368.87) scale(1.6765) rotate(0)"><path fill-rule="evenodd" clip-rule="evenodd" d="M10 20C15.5228 20 20 15.5228 20 10C20 4.47715 15.5228 0 10 0C4.47715 0 0 4.47715 0 10C0 15.5228 4.47715 20 10 20ZM10 17C13.866 17 17 13.866 17 10C17 6.13401 13.866 3 10 3C6.13401 3 3 6.13401 3 10C3 13.866 6.13401 17 10 17Z" fill="#5a5b5d"/></g><g transform="translate(368.87,368.87) scale(1.6765) rotate(0)"><rect width="20" height="2" fill="#848588"/><rect y="4" width="20" height="2" fill="#848588"/><rect y="8" width="20" height="2" fill="#848588"/><rect y="12" width="20" height="2" fill="#848588"/><rect y="16" width="20" height="2" fill="#848588"/></g><rect x="402.39959999999996" y="335.33299999999997" width="67.0666" height="67.0666" fill="#000000"/><rect x="402.4" y="335.33" width="33.53" height="33.53" fill="#b0b1b6"/><g transform="translate(435.93,335.33) scale(1.6765) rotate(0)"><path fill-rule="evenodd" clip-rule="evenodd" d="M10 20C15.5228 20 20 15.5228 20 10C20 4.47715 15.5228 0 10 0C4.47715 0 0 4.47715 0 10C0 15.5228 4.47715 20 10 20ZM10 17C13.866 17 17 13.866 17 10C17 6.13401 13.866 3 10 3C6.13401 3 3 6.13401 3 10C3 13.866 6.13401 17 10 17Z" fill="#1a1b1b"/></g><g transform="translate(402.4,368.87) scale(1.6765) rotate(0)"><path d="M10 5L5 0L0 5L5 10L0 15L5 20L10 15L15 20L20 15L15 10L20 5L15 0L10 5Z" fill="#646568"/></g><g transform="translate(435.93,368.87) scale(1.6765) rotate(0)"><path fill-rule="evenodd" clip-rule="evenodd" d="M10 20C15.5228 20 20 15.5228 20 10C20 4.47715 15.5228 0 10 0C4.47715 0 0 4.47715 0 10C0 15.5228 4.47715 20 10 20ZM10 17C13.866 17 17 13.866 17 10C17 6.13401 13.866 3 10 3C6.13401 3 3 6.13401 3 10C3 13.866 6.13401 17 10 17Z" fill="#1f1f20"/></g><rect x="469.46619999999996" y="335.33299999999997" width="67.0666" height="67.0666" fill="#000000"/><rect x="469.47" y="335.33" width="33.53" height="33.53" fill="#5b5b5e"/><g transform="translate(503,335.33) scale(1.6765) rotate(0)"><rect width="20" height="2" fill="#1e1e1f"/><rect y="4" width="20" height="2" fill="#1e1e1f"/><rect y="8" width="20" height="2" fill="#1e1e1f"/><rect y="12" width="20" height="2" fill="#1e1e1f"/><rect y="16" width="20" height="2" fill="#1e1e1f"/></g><g transform="translate(469.47,368.87) scale(1.6765) rotate(0)"><path fill-rule="evenodd" clip-rule="evenodd" d="M10 20C15.5228 20 20 15.5228 20 10C20 4.47715 15.5228 0 10 0C4.47715 0 0 4.47715 0 10C0 15.5228 4.47715 20 10 20ZM10 17C13.866 17 17 13.866 17 10C17 6.13401 13.866 3 10 3C6.13401 3 3 6.13401 3 10C3 13.866 6.13401 17 10 17Z" fill="#353536"/></g><g transform="translate(503,368.87) scale(1.6765) rotate(0)"><path d="M10 5L5 0L0 5L5 10L0 15L5 20L10 15L15 20L20 15L15 10L20 5L15 0L10 5Z" fill="#f5f6fd"/></g><rect x="536.5328" y="335.33299999999997" width="67.0666" height="67.0666" fill="#000000"/><g transform="translate(536.53,335.33) scale(1.6765) rotate(0)"><path d="M10 5L5 0L0 5L5 10L0 15L5 20L10 15L15 20L20 15L15 10L20 5L15 0L10 5Z" fill="#aaaaaf"/></g><rect x="570.07" y="335.33" width="33.53" height="33.53" fill="#95969a"/><g transform="translate(536.53,368.87) scale(1.6765) rotate(0)"><path fill-rule="evenodd" clip-rule="evenodd" d="M10 20C15.5228 20 20 15.5228 20 10C20 4.47715 15.5228 0 10 0C4.47715 0 0 4.47715 0 10C0 15.5228 4.47715 20 10 20ZM10 17C13.866 17 17 13.866 17 10C17 6.13401 13.866 3 10 3C6.13401 3 3 6.13401 3 10C3 13.866 6.13401 17 10 17Z" fill="#c6c7cc"/></g><g transform="translate(570.07,368.87) scale(1.6765) rotate(0)"><path fill-rule="evenodd" clip-rule="evenodd" d="M10 20C15.5228 20 20 15.5228 20 10C20 4.47715 15.5228 0 10 0C4.47715 0 0 4.47715 0 10C0 15.5228 4.47715 20 10 20ZM10 17C13.866 17 17 13.866 17 10C17 6.13401 13.866 3 10 3C6.13401 3 3 6.13401 3 10C3 13.866 6.13401 17 10 17Z" fill="#9b9ca0"/></g><rect x="603.5994" y="335.33299999999997" width="67.0666" height="67.0666" fill="#000000"/><g transform="translate(603.6,335.33) scale(1.6765) rotate(0)"><path d="M10 5L5 0L0 5L5 10L0 15L5 20L10 15L15 20L20 15L15 10L20 5L15 0L10 5Z" fill="#171718"/></g><rect x="637.13" y="335.33" width="33.53" height="33.53" fill="#c9cad0"/><g transform="translate(603.6,368.87) scale(1.6765) rotate(0)"><path d="M10 5L5 0L0 5L5 10L0 15L5 20L10 15L15 20L20 15L15 10L20 5L15 0L10 5Z" fill="#161617"/></g><g transform="translate(637.13,368.87) scale(1.6765) rotate(0)"><path fill-rule="evenodd" clip-rule="evenodd" d="M10 20C15.5228 20 20 15.5228 20 10C20 4.47715 15.5228 0 10 0C4.47715 0 0 4.47715 0 10C0 15.5228 4.47715 20 10 20ZM10 17C13.866 17 17 13.866 17 10C17 6.13401 13.866 3 10 3C6.13401 3 3 6.13401 3 10C3 13.866 6.13401 17 10 17Z" fill="#bfbfc5"/></g><rect x="670.6659999999999" y="335.33299999999997" width="67.0666" height="67.0666" fill="#000000"/><g transform="translate(670.67,335.33) scale(1.6765) rotate(0)"><rect width="20" height="2" fill="#59595c"/><rect y="4" width="20" height="2" fill="#59595c"/><rect y="8" width="20" height="2" fill="#59595c"/><rect y="12" width="20" height="2" fill="#59595c"/><rect y="16" width="20" height="2" fill="#59595c"/></g><g transform="translate(704.2,335.33) scale(1.6765) rotate(0)"><path fill-rule="evenodd" clip-rule="evenodd" d="M10 20C15.5228 20 20 15.5228 20 10C20 4.47715 15.5228 0 10 0C4.47715 0 0 4.47715 0 10C0 15.5228 4.47715 20 10 20ZM10 17C13.866 17 17 13.866 17 10C17 6.13401 13.866 3 10 3C6.13401 3 3 6.13401 3 10C3 13.866 6.13401 17 10 17Z" fill="#1c1c1d"/></g><g transform="translate(670.67,368.87) scale(1.6765) rotate(0)"><rect width="20" height="2" fill="#2e2f30"/><rect y="4" width="20" height="2" fill="#2e2f30"/><rect y="8" width="20" height="2" fill="#2e2f30"/><rect y="12" width="20" height="2" fill="#2e2f30"/><rect y="16" width="20" height="2" fill="#2e2f30"/></g><g transform="translate(704.2,368.87) scale(1.6765) rotate(0)"><rect width="20" height="2" fill="#7b7c7f"/><rect y="4" width="20" height="2" fill="#7b7c7f"/><rect y="8" width="20" height="2" fill="#7b7c7f"/><rect y="12" width="20" height="2" fill="#7b7c7f"/><rect y="16" width="20" height="2" fill="#7b7c7f"/></g></g></svg>