<svg id="visual" viewBox="0 0 900 600" width="900" height="600" xmlns="http://www.w3.org/2000/svg" xmlns:xlink="http://www.w3.org/1999/xlink" version="1.1"><rect x="0" y="0" width="900" height="600" fill="#002233"></rect><path d="M0 512L21.5 491C43 470 86 428 128.8 424.7C171.7 421.3 214.3 456.7 257.2 467.5C300 478.3 343 464.7 385.8 468.5C428.7 472.3 471.3 493.7 514.2 491.3C557 489 600 463 642.8 458.2C685.7 453.3 728.3 469.7 771.2 471.5C814 473.3 857 460.7 878.5 454.3L900 448L900 601L878.5 601C857 601 814 601 771.2 601C728.3 601 685.7 601 642.8 601C600 601 557 601 514.2 601C471.3 601 428.7 601 385.8 601C343 601 300 601 257.2 601C214.3 601 171.7 601 128.8 601C86 601 43 601 21.5 601L0 601Z" fill="#FF0066" stroke-linecap="round" stroke-linejoin="miter"></path></svg>